<svg id="iwanacash-logo" xmlns="http://www.w3.org/2000/svg" width="208" height="18" viewBox="0 0 208 18">
  <path id="Trazado_1472" data-name="Trazado 1472" d="M328.639,529.417l-.053-.005c-.071-.008-.141-.018-.21-.032l-.034-.008c-.059-.013-.116-.027-.192-.05l-.04-.012c-.061-.02-.123-.042-.181-.066l-.066-.03c-.039-.018-.079-.036-.12-.057l-.018-.009-.056-.029c-.049-.027-.1-.056-.143-.087-.031-.02-.06-.041-.089-.062l-.066-.049c-.06-.046-.117-.094-.173-.146l-.025-.022c-.033-.031-.065-.065-.1-.106l-.015-.016a2.474,2.474,0,0,1-.166-.2l-.014-.02c-.029-.04-.057-.081-.084-.123a.6.6,0,0,0-.112-.131l-6.563-6.79a.613.613,0,0,0-1.054.424v5.192a2.456,2.456,0,0,1-4.911,0V514.25a2.446,2.446,0,0,1,1.286-2.152c.069-.038.141-.072.214-.1a2.485,2.485,0,0,1,1.179-.181l.056.006c.071.008.142.018.2.029l.038.009c.06.013.119.029.177.046l.067.02c.058.019.115.039.172.063l.074.033c.038.017.076.035.115.055l.084.044.092.056c.052.033.1.067.152.1l.05.037a2.507,2.507,0,0,1,.328.3,2.476,2.476,0,0,1,.274.369.594.594,0,0,0,.126.147l6.523,6.774a.613.613,0,0,0,1.054-.423V514.25a2.456,2.456,0,0,1,4.911,0v12.732a2.439,2.439,0,0,1-.894,1.888,2.449,2.449,0,0,1-1.309.546A2.521,2.521,0,0,1,328.639,529.417Zm-19.323-2.435a2.434,2.434,0,0,0-.359-1.268.569.569,0,0,1-.028-.051l-7.953-12.615a.576.576,0,0,1-.043-.061,2.48,2.48,0,0,0-.274-.369,2.508,2.508,0,0,0-.328-.3l-.04-.03c-.059-.044-.11-.078-.162-.11l-.089-.054-.085-.045c-.041-.021-.079-.039-.117-.056l-.073-.033c-.057-.023-.114-.044-.173-.063l-.066-.02c-.06-.018-.119-.033-.179-.046l-.035-.008c-.06-.012-.13-.022-.2-.03l-.056-.006a2.592,2.592,0,0,0-.447,0l-.056.006c-.071.008-.141.018-.211.032l-.029.007c-.057.012-.116.027-.175.045l-.067.021c-.058.019-.115.039-.171.062l-.076.034c-.035.016-.073.034-.11.053l-.09.048c-.028.016-.058.035-.087.053-.053.033-.1.067-.152.1l-.052.039a2.481,2.481,0,0,0-.6.67l0,0a.642.642,0,0,1-.041.059l-7.953,12.614c-.008.017-.017.033-.027.05a2.45,2.45,0,0,0,4.17,2.574c.009-.014.018-.027.027-.04l5.407-8.6a.614.614,0,0,1,1.038,0l5.407,8.6c.009.013.018.026.027.039a2.456,2.456,0,0,0,4.53-1.306Zm-59.681,0a2.432,2.432,0,0,0-.359-1.268.546.546,0,0,1-.028-.051L241.3,513.049a.679.679,0,0,1-.042-.061,2.451,2.451,0,1,0-4.034,2.765.609.609,0,0,1,.036.052l7.824,12.444c.01.013.019.026.027.039a2.455,2.455,0,0,0,4.529-1.306Zm37.65-11.229a2.416,2.416,0,0,0,.521-1.5,2.455,2.455,0,0,0-4.556-1.262.633.633,0,0,1-.043.062l-5.366,8.51a.614.614,0,0,1-1.037,0l-5.366-8.511a.621.621,0,0,1-.042-.061,2.48,2.48,0,0,0-.274-.369,2.508,2.508,0,0,0-.328-.3l-.04-.03c-.059-.044-.11-.078-.162-.11l-.089-.054-.085-.045c-.04-.021-.078-.039-.116-.056l-.073-.033c-.057-.023-.115-.044-.173-.063l-.066-.02c-.06-.018-.119-.033-.18-.046l-.034-.008c-.059-.012-.13-.022-.2-.03l-.056-.006a2.587,2.587,0,0,0-.447,0l-.056.006c-.071.008-.142.018-.211.032l-.029.007c-.057.012-.116.027-.175.045l-.067.021c-.058.019-.115.039-.17.062l-.077.035c-.036.016-.074.034-.112.053l-.088.047c-.028.016-.057.034-.085.052-.055.034-.106.068-.155.1l-.048.036a2.43,2.43,0,0,0-.321.3l-.015.016a2.464,2.464,0,0,0-.268.363.617.617,0,0,1-.043.062l-5.366,8.51a.613.613,0,0,1-1.037,0l-5.366-8.511a.616.616,0,0,1-.042-.061,2.455,2.455,0,0,0-4.556,1.262,2.415,2.415,0,0,0,.521,1.5.546.546,0,0,1,.036.052l7.823,12.442.029.042q.04.063.083.122l.015.02a2.392,2.392,0,0,0,.165.2l.016.017c.039.042.072.075.1.106l.029.026c.051.047.109.1.169.142l.066.05c.028.02.057.041.088.061.047.031.095.06.144.087l.06.031c.056.029.1.047.135.065l.065.029c.06.025.121.047.183.067l.043.013c.073.022.131.037.189.049l.036.008c.068.014.138.024.209.032l.053.005a2.535,2.535,0,0,0,.447,0l.052-.005c.072-.008.142-.018.211-.032l.038-.009c.055-.012.113-.027.17-.044l.061-.018c.06-.019.121-.041.18-.065l.067-.03c.038-.017.077-.036.116-.056l.023-.012.055-.028c.047-.027.1-.056.142-.086.029-.019.059-.04.088-.061l.066-.049c.061-.046.118-.095.174-.146l.023-.021c.037-.034.068-.067.1-.1l.022-.025a2.507,2.507,0,0,0,.173-.21c.036-.05.064-.09.091-.133.009-.014.017-.026.027-.039l5.407-8.6a.613.613,0,0,1,1.038,0l5.408,8.6c.01.013.019.026.027.039.026.042.054.082.082.121a2.64,2.64,0,0,0,.179.22l.014.015c.041.045.074.077.107.109l.027.025c.053.048.111.1.171.144l.065.048c.029.021.058.042.089.062.048.031.1.06.144.088l.053.028.022.011q.058.03.119.057l.066.029c.058.024.118.046.18.066l.041.012.02.006c.057.017.114.032.172.044l.035.008c.069.014.139.024.21.032l.053.005a2.535,2.535,0,0,0,.447,0l.052-.005c.072-.008.142-.018.211-.032l.036-.009c.058-.012.115-.027.171-.044l.062-.019c.06-.019.12-.041.179-.065l.066-.03q.06-.027.119-.057l.02-.01.055-.029q.073-.041.142-.086c.03-.02.06-.041.09-.062l.064-.048c.061-.047.119-.1.175-.147l.021-.019c.038-.035.069-.068.1-.1l.025-.028a2.469,2.469,0,0,0,.169-.205c.035-.048.061-.086.086-.124.007-.012.015-.024.023-.035l.01-.014,7.825-12.444A.607.607,0,0,1,287.286,515.753Zm61.49-2.7a.605.605,0,0,1-.043-.062,2.414,2.414,0,0,0-.274-.369,2.5,2.5,0,0,0-.328-.3l-.04-.03c-.059-.043-.109-.077-.161-.11l-.09-.055-.086-.046c-.039-.02-.077-.038-.115-.055l-.072-.033c-.058-.024-.115-.044-.174-.063l-.065-.02c-.061-.018-.12-.034-.181-.047l-.035-.008c-.059-.012-.13-.021-.2-.029l-.056-.006a2.539,2.539,0,0,0-.446,0l-.057.006c-.071.008-.141.018-.21.032l-.027.006c-.059.013-.119.029-.177.046l-.067.021c-.057.019-.115.039-.171.062l-.076.034c-.035.016-.073.034-.11.053l-.09.048c-.025.014-.051.03-.077.047-.062.039-.113.074-.163.109l-.05.037a2.476,2.476,0,0,0-.6.672.6.6,0,0,1-.043.062l-7.953,12.615c-.008.017-.018.033-.027.05a2.45,2.45,0,0,0,4.17,2.574c.009-.014.018-.028.029-.042l5.406-8.6a.614.614,0,0,1,1.038,0l5.406,8.6c.01.013.019.027.028.041a2.45,2.45,0,0,0,4.17-2.574c-.01-.017-.019-.033-.028-.051Z" transform="translate(-236.697 -511.621)" fill="#02bcd1"/>
  <g id="Grupo_4019" data-name="Grupo 4019" transform="translate(129.966)">
    <path id="Trazado_1473" data-name="Trazado 1473" d="M859.011,511.989a1.076,1.076,0,0,0-1.076,1.073v6.7h-9.84v-6.7a1.076,1.076,0,0,0-2.153,0v15.489a1.076,1.076,0,0,0,2.153,0v-6.767h9.84v6.767a1.077,1.077,0,0,0,2.153,0V513.062A1.076,1.076,0,0,0,859.011,511.989Z" transform="translate(-782.053 -511.748)" fill="#02bcd1"/>
    <path id="Trazado_1474" data-name="Trazado 1474" d="M658.915,525.134a9.2,9.2,0,0,1-2.09,1.469,6.523,6.523,0,0,1-2.925.614,6.223,6.223,0,0,1-2.586-.538,6.448,6.448,0,0,1-2.071-1.478,7.131,7.131,0,0,1-1.392-2.222,7.342,7.342,0,0,1-.513-2.749v-.047a7.4,7.4,0,0,1,.5-2.739,6.983,6.983,0,0,1,1.38-2.208,6.278,6.278,0,0,1,4.656-1.993,6.991,6.991,0,0,1,1.613.177,7.085,7.085,0,0,1,1.381.477,6.716,6.716,0,0,1,1.187.719c.244.184.483.38.711.581a1.026,1.026,0,0,0,1.411-.052l.071-.072a1.022,1.022,0,0,0-.071-1.495c-.288-.244-.585-.476-.885-.691a9.24,9.24,0,0,0-1.52-.882,8.342,8.342,0,0,0-1.768-.575,10.354,10.354,0,0,0-2.107-.2,8.491,8.491,0,0,0-6.267,2.657,9.128,9.128,0,0,0-1.819,2.868,9.242,9.242,0,0,0-.661,3.474v.047a9.468,9.468,0,0,0,.647,3.5,8.693,8.693,0,0,0,1.813,2.851,8.548,8.548,0,0,0,2.764,1.908,8.644,8.644,0,0,0,3.475.7,9.486,9.486,0,0,0,2.116-.224,8.842,8.842,0,0,0,1.811-.623,8.933,8.933,0,0,0,1.573-.958c.317-.241.632-.5.937-.772a1.024,1.024,0,1,0-1.375-1.518Z" transform="translate(-645.153 -511.229)" fill="#02bcd1"/>
    <path id="Trazado_1475" data-name="Trazado 1475" d="M720.047,512.323a1.02,1.02,0,0,0-.889-.519h-.521a1.019,1.019,0,0,0-.9.534l-8.44,15.6a1.016,1.016,0,0,0,.9,1.5,1.018,1.018,0,0,0,.9-.533l7.687-14.182a.11.11,0,0,1,.1-.059.108.108,0,0,1,.1.058l8,14.2a1.022,1.022,0,0,0,.889.518h.06a1.016,1.016,0,0,0,.889-1.512Z" transform="translate(-688.805 -511.622)" fill="#02bcd1"/>
    <path id="Trazado_1476" data-name="Trazado 1476" d="M793.434,521.036a9.882,9.882,0,0,0-4.37-1.761,16.648,16.648,0,0,1-2.351-.642,4.827,4.827,0,0,1-1.352-.717,1.9,1.9,0,0,1-.6-.779,2.909,2.909,0,0,1-.173-1.034v-.047a2.187,2.187,0,0,1,.237-1,2.516,2.516,0,0,1,.7-.841,3.672,3.672,0,0,1,1.14-.6,4.856,4.856,0,0,1,1.527-.225,7.22,7.22,0,0,1,2.419.4,6.752,6.752,0,0,1,1.8,1,1.072,1.072,0,0,0,1.707-.994,1.05,1.05,0,0,0-.426-.71,9.47,9.47,0,0,0-2.173-1.184,9.322,9.322,0,0,0-3.277-.525,7.073,7.073,0,0,0-2.279.355,5.734,5.734,0,0,0-1.826,1,4.817,4.817,0,0,0-1.228,1.524,4.183,4.183,0,0,0-.452,1.916v.047a4.76,4.76,0,0,0,.343,1.851,3.788,3.788,0,0,0,1.113,1.461,6.794,6.794,0,0,0,1.866,1.041,16.679,16.679,0,0,0,2.635.742,14.57,14.57,0,0,1,2.25.6,4.962,4.962,0,0,1,1.313.7,1.847,1.847,0,0,1,.595.754,2.824,2.824,0,0,1,.171,1.018v.047a2.373,2.373,0,0,1-.259,1.105,2.742,2.742,0,0,1-.733.893,3.635,3.635,0,0,1-1.18.606,5.2,5.2,0,0,1-1.569.227,8.432,8.432,0,0,1-1.618-.145,7.372,7.372,0,0,1-1.407-.423,7.3,7.3,0,0,1-1.3-.711,10.533,10.533,0,0,1-.875-.67,1.058,1.058,0,0,0-1.743.893,1.04,1.04,0,0,0,.387.727,11.159,11.159,0,0,0,2.726,1.645,9.814,9.814,0,0,0,3.764.7,7.555,7.555,0,0,0,2.357-.353,5.8,5.8,0,0,0,1.876-1,4.731,4.731,0,0,0,1.257-1.578,4.53,4.53,0,0,0,.461-2.03v-.047A4.031,4.031,0,0,0,793.434,521.036Z" transform="translate(-738.487 -511.331)" fill="#02bcd1"/>
  </g>
</svg>
