<svg xmlns="http://www.w3.org/2000/svg" xmlns:xlink="http://www.w3.org/1999/xlink" width="51.201" height="73.245" viewBox="0 0 51.201 73.245"><defs><style>.a{fill:url(#a);}.b{fill:url(#b);}.c{fill:#c5baeb;}.d{fill:url(#c);}.e{fill:url(#d);}.f{fill:url(#e);}.g{fill:#ffa538;}.h{fill:url(#f);}</style><linearGradient id="a" y1="0.5" x2="1.097" y2="0.5" gradientUnits="objectBoundingBox"><stop offset="0.102" stop-color="#41464e"/><stop offset="0.588" stop-color="#4b515a"/><stop offset="1" stop-color="#565d68"/></linearGradient><linearGradient id="b" y1="0.5" x2="1.097" y2="0.5" gradientUnits="objectBoundingBox"><stop offset="0" stop-color="#d7d1eb"/><stop offset="0.898" stop-color="#e9e5f6"/></linearGradient><radialGradient id="c" cx="0.367" cy="0.554" fx="0.7349499464035034" fy="0.2608455419540405" r="0.699" gradientTransform="translate(-0.081) scale(1.161 1)" gradientUnits="objectBoundingBox"><stop offset="0.034" stop-color="#fcf3b3"/><stop offset="0.142" stop-color="#fcf1a8"/><stop offset="0.333" stop-color="#faec8b"/><stop offset="0.58" stop-color="#f8e55c"/><stop offset="0.71" stop-color="#f7e041"/><stop offset="0.952" stop-color="#ffc538"/></radialGradient><linearGradient id="d" x1="0.74" y1="0.082" x2="0.259" y2="0.919" gradientUnits="objectBoundingBox"><stop offset="0" stop-color="#ffa538"/><stop offset="1" stop-color="#ffa538" stop-opacity="0"/></linearGradient><linearGradient id="e" x1="0.229" y1="0.291" x2="1.027" y2="0.907" xlink:href="#d"/><linearGradient id="f" x1="-0.003" y1="1.249" x2="0.588" y2="0.37" gradientUnits="objectBoundingBox"><stop offset="0" stop-color="#fff"/><stop offset="1" stop-color="#fff" stop-opacity="0"/></linearGradient></defs><g transform="translate(-77.047 0.001)"><path class="a" d="M197.583,373.77v10.184a8.357,8.357,0,1,0,16.714,0V372.33Z" transform="translate(-103.293 -319.066)"/><path class="b" d="M158.377,335.019v6.006a13.966,13.966,0,0,0,27.931,0v-8.411Z" transform="translate(-69.695 -285.031)"/><path class="c" d="M171.742,358.508a13.966,13.966,0,0,1-13.966-13.966v2.49a13.966,13.966,0,0,0,27.931,0v-2.49A13.966,13.966,0,0,1,171.742,358.508Z" transform="translate(-69.18 -295.253)"/><path class="d" d="M128.248,25.6A25.6,25.6,0,1,0,83.542,42.638a15.552,15.552,0,0,1,3.174,5.379,16.809,16.809,0,0,0,31.864,0,15.406,15.406,0,0,1,3.149-5.351,25.5,25.5,0,0,0,6.52-17.066Z" transform="translate(0 0)"/><path class="e" d="M291.038,138.356a1.812,1.812,0,0,1-1.8-2.051l3-24.308a1.81,1.81,0,0,1,3.588.481l-3,24.309A1.81,1.81,0,0,1,291.038,138.356Z" transform="translate(-181.825 -94.631)"/><path class="f" d="M189.32,211.563a1.811,1.811,0,0,1-1.673-1.117l-3.9-19.8a1.81,1.81,0,1,1,3.344-1.386l3.9,19.8a1.811,1.811,0,0,1-1.671,2.5Z" transform="translate(-91.314 -161.229)"/><g transform="translate(92.291 15.797)"><path class="g" d="M185.419,125.165a1.81,1.81,0,0,1-.949-3.353l18.106-11.118a1.81,1.81,0,0,1,1.894,3.085L186.364,124.9A1.8,1.8,0,0,1,185.419,125.165Z" transform="translate(-183.607 -110.427)"/></g><path class="h" d="M246.931,35.934c-6.124-3.93-13.479-3.391-16.428,1.2s-.376,11.507,5.748,15.437,13.479,3.391,16.428-1.2S253.055,39.865,246.931,35.934Z" transform="translate(-130.456 -28.541)"/></g></svg>